<?xml version="1.0" standalone="no"?>
<!DOCTYPE svg PUBLIC "-//W3C//DTD SVG 20010904//EN"
 "http://www.w3.org/TR/2001/REC-SVG-20010904/DTD/svg10.dtd">
<svg version="1.0" xmlns="http://www.w3.org/2000/svg"
 width="230.000000pt" height="236.000000pt" viewBox="0 0 230.000000 236.000000"
 preserveAspectRatio="xMidYMid meet">
<metadata>
Created by potrace 1.10, written by Peter Selinger 2001-2011
</metadata>
<g transform="translate(0.000000,236.000000) scale(0.100000,-0.100000)"
fill="#ff0000" stroke="none">
<path d="M1150 2100 c-14 -4 -39 -8 -57 -9 -49 -2 -125 -30 -155 -58 -28 -27
-48 -89 -48 -152 0 -39 -20 -177 -40 -271 -48 -228 -42 -203 -115 -505 -54
-225 -62 -256 -84 -342 -6 -23 -15 -61 -20 -85 -5 -23 -17 -74 -25 -113 -26
-114 -22 -153 22 -221 56 -86 95 -114 126 -91 25 20 52 107 131 432 41 171 80
320 85 333 9 21 15 22 130 22 66 0 139 4 162 9 24 6 88 18 143 27 55 10 104
21 109 26 6 4 18 8 28 8 30 0 127 51 148 78 53 66 4 106 -118 99 -257 -17
-534 -29 -539 -24 -3 4 10 84 30 179 48 235 57 284 60 348 l2 55 105 13 c223
26 279 32 385 42 222 19 373 48 397 77 5 7 7 24 4 38 -8 32 -67 61 -156 76
-77 14 -673 21 -710 9z"/>
</g>
</svg>
